<svg aria-hidden="true" style="position: absolute; width: 0; height: 0; overflow: hidden;" version="1.1" xmlns="http://www.w3.org/2000/svg" xmlns:xlink="http://www.w3.org/1999/xlink">
<defs>
<symbol id="icon-navigate_before" viewBox="0 0 24 24">
<path d="M15.422 7.406l-4.594 4.594 4.594 4.594-1.406 1.406-6-6 6-6z"></path>
</symbol>
<symbol id="icon-navigate_next" viewBox="0 0 24 24">
<path d="M9.984 6l6 6-6 6-1.406-1.406 4.594-4.594-4.594-4.594z"></path>
</symbol>
<symbol id="icon-check_box" viewBox="0 0 24 24">
<path d="M9.984 17.016l9-9-1.406-1.453-7.594 7.594-3.563-3.563-1.406 1.406zM18.984 3q0.844 0 1.43 0.586t0.586 1.43v13.969q0 0.844-0.586 1.43t-1.43 0.586h-13.969q-0.844 0-1.43-0.586t-0.586-1.43v-13.969q0-0.844 0.586-1.43t1.43-0.586h13.969z"></path>
</symbol>
<symbol id="icon-check_box_outline_blank" viewBox="0 0 24 24">
<path d="M18.984 3q0.797 0 1.406 0.609t0.609 1.406v13.969q0 0.797-0.609 1.406t-1.406 0.609h-13.969q-0.797 0-1.406-0.609t-0.609-1.406v-13.969q0-0.797 0.609-1.406t1.406-0.609h13.969zM18.984 5.016h-13.969v13.969h13.969v-13.969z"></path>
</symbol>
</defs>
</svg>
