<svg xmlns="http://www.w3.org/2000/svg" viewBox="0 0 918.67 918.67"><defs><style>.cls-1{fill:#fefefe;}.cls-2{fill:#026fbb;}.cls-3{fill:#434343;}.cls-4{fill:#d4d5d9;}.cls-5{fill:#ef4354;}</style></defs><g id="Layer_2" data-name="Layer 2"><g id="Layer_1-2" data-name="Layer 1"><path class="cls-1" d="M918.67,918.67H0V0H918.67Zm-493-62.25c108.55.29,181.87-21.88,248.65-65.38,55.71-36.29,99.47-84,131.42-142.27,29-52.91,45.78-109.67,48.53-169.94,5.17-113.68-30-213.64-107.85-296.83C673.74,104.34,582.94,62,476.75,56.33,363.29,50.27,263.43,86.16,180.33,163.85c-77.81,72.74-120.22,163.66-125.84,270-6,113.65,29.92,213.71,108,296.66C241.2,814.1,339.47,855.1,425.65,856.42Z"/><path class="cls-2" d="M425.65,856.42C339.47,855.1,241.2,814.1,162.52,730.54c-78.11-82.95-114-183-108-296.66,5.62-106.37,48-197.29,125.84-270,83.1-77.69,183-113.58,296.42-107.52,106.19,5.67,197,48,269.65,125.67,77.85,83.19,113,183.15,107.85,296.83-2.75,60.27-19.52,117-48.53,169.94-32,58.29-75.71,106-131.42,142.27C607.52,834.54,534.2,856.71,425.65,856.42Zm336.7-397.9c14.14-8.73,27.59-17.18,41.23-25.32,3.2-1.91,4.6-4.07,4-7.65-2.14-13.74-3.92-27.55-6.46-41.21A298.11,298.11,0,0,0,776,307.87a463,463,0,0,0-29.29-51.21,339.65,339.65,0,0,0-31.11-39.59,320.94,320.94,0,0,0-43.7-40.44,380.23,380.23,0,0,0-52.94-34.27,347.11,347.11,0,0,0-71.29-28.14c-11.77-3.21-23.82-5.39-35.81-7.71-7.92-1.53-16-2.46-23.93-3.72-2.67-.42-4.09.81-5.49,3-8.59,13.36-17.34,26.63-26.05,39.92-.69,1.05-1.5,2-2.45,3.29-9.41-14.61-18.64-28.65-27.52-42.91-1.92-3.07-4.19-3.73-7.19-3.25-12.83,2.07-25.69,4-38.46,6.4-26.44,5-51.74,13.68-76.13,24.89-18.46,8.48-36.41,18.1-52.69,30.34-14.14,10.64-28.22,21.48-41.36,33.29C200,207.26,190.37,218,181.13,228.87A369.06,369.06,0,0,0,157,260.73c-11.4,16.81-21.49,34.49-29,53.38-6.58,16.55-12.43,33.41-17.78,50.4-6,18.84-8.55,38.43-11.07,58-.49,3.82-.24,6.95,4.06,9.46,12.67,7.37,24.93,15.44,37.34,23.25,1.59,1,3.15,2.07,5.21,3.43-14.52,8.3-28.31,16.45-42.4,24.06-3.89,2.1-4.83,4.7-4.24,8.4,2.06,13,3.95,26,6.44,38.91a302,302,0,0,0,25.33,76.44A468.32,468.32,0,0,0,160,657.25a306,306,0,0,0,31.12,39.56c12,13,25.47,24.75,38.87,36.38,16.86,14.65,35.7,26.54,55.33,37.12,19.18,10.33,39.06,19.19,60,25.26,14.56,4.21,29.33,7.79,44.14,11,9.77,2.14,19.76,3.36,29.7,4.6,4.37.54,8.45.86,11.5-4.51,7.46-13.13,15.86-25.73,24.11-38.89,1.06,1.5,2,2.67,2.76,3.92,7.64,12,15.42,23.88,22.79,36,1.95,3.22,4.27,4,7.48,3.52,12.83-2.08,25.7-4,38.46-6.42a301.88,301.88,0,0,0,76.44-25.3,465.82,465.82,0,0,0,50.8-29.09,340.49,340.49,0,0,0,39.64-31,314.53,314.53,0,0,0,41-44.38,384.47,384.47,0,0,0,34.06-53,362.42,362.42,0,0,0,27.48-69.17c5.85-20.45,9.41-41.31,11.91-62.39.4-3.35-.58-5.45-3.8-7.3C790.06,475.25,776.52,467,762.35,458.52Z"/><path class="cls-1" d="M762.35,458.52c14.17,8.46,27.71,16.73,41.48,24.62,3.22,1.85,4.2,3.95,3.8,7.3-2.5,21.08-6.06,41.94-11.91,62.39A362.42,362.42,0,0,1,768.24,622a384.47,384.47,0,0,1-34.06,53,314.53,314.53,0,0,1-41,44.38,340.49,340.49,0,0,1-39.64,31,465.82,465.82,0,0,1-50.8,29.09,301.88,301.88,0,0,1-76.44,25.3c-12.76,2.45-25.63,4.34-38.46,6.42-3.21.52-5.53-.3-7.48-3.52-7.37-12.14-15.15-24-22.79-36-.79-1.25-1.7-2.42-2.76-3.92-8.25,13.16-16.65,25.76-24.11,38.89-3,5.37-7.13,5.05-11.5,4.51-9.94-1.24-19.93-2.46-29.7-4.6-14.81-3.23-29.58-6.81-44.14-11-20.95-6.07-40.83-14.93-60-25.26-19.63-10.58-38.47-22.47-55.33-37.12-13.4-11.63-26.83-23.4-38.87-36.38A306,306,0,0,1,160,657.25a468.32,468.32,0,0,1-29.06-50.81A302,302,0,0,1,105.59,530c-2.49-12.9-4.38-25.93-6.44-38.91-.59-3.7.35-6.3,4.24-8.4,14.09-7.61,27.88-15.76,42.4-24.06-2.06-1.36-3.62-2.42-5.21-3.43-12.41-7.81-24.67-15.88-37.34-23.25-4.3-2.51-4.55-5.64-4.06-9.46,2.52-19.55,5.12-39.14,11.07-58,5.35-17,11.2-33.85,17.78-50.4,7.52-18.89,17.61-36.57,29-53.38a369.06,369.06,0,0,1,24.09-31.86c9.24-10.87,18.82-21.61,29.41-31.13,13.14-11.81,27.22-22.65,41.36-33.29,16.28-12.24,34.23-21.86,52.69-30.34,24.39-11.21,49.69-19.91,76.13-24.89,12.77-2.4,25.63-4.33,38.46-6.4,3-.48,5.27.18,7.19,3.25,8.88,14.26,18.11,28.3,27.52,42.91.95-1.27,1.76-2.24,2.45-3.29,8.71-13.29,17.46-26.56,26.05-39.92,1.4-2.17,2.82-3.4,5.49-3,8,1.26,16,2.19,23.93,3.72,12,2.32,24,4.5,35.81,7.71a347.11,347.11,0,0,1,71.29,28.14,380.23,380.23,0,0,1,52.94,34.27,320.94,320.94,0,0,1,43.7,40.44,339.65,339.65,0,0,1,31.11,39.59A463,463,0,0,1,776,307.87a298.11,298.11,0,0,1,25.21,76.47c2.54,13.66,4.32,27.47,6.46,41.21.56,3.58-.84,5.74-4,7.65C789.94,441.34,776.49,449.79,762.35,458.52ZM293.28,621.06l1.77,0c2-1.34,4.1-2.64,6.12-4l107.16-72.84c1.94,7.77,4,15.53,5.82,23.32q12.39,52.15,24.69,104.34c4.92,20.81,9.82,41.62,15,63.43.66-2.28,1.09-3.56,1.4-4.87,4.41-18.49,8.76-37,13.21-55.48q13.6-56.58,27.35-113.11c1.54-6.29,3.67-12.43,5.52-18.64,1.32.76,2.67,1.47,4,2.29l106.52,68.11c1.45.93,3,1.74,4.45,2.61l.54-.65c-24.24-38.31-48.47-76.63-73-115.41l191-41.4V458L541.47,416.6l6.91-10.67,68-104.43c.08-.35.15-.7.23-1.05l-.87.48c-13.41,8.08-26.86,16.12-40.25,24.25q-37.66,22.89-75.28,45.87a15.26,15.26,0,0,1-.83-2.12Q483.69,302.36,468,235.78c-4-17.11-8.07-34.22-12.32-52.24-.61,1.94-1,2.93-1.24,4Q437,260.21,419.41,332.92c-3.25,13.46-6.72,26.87-10.09,40.31q-32.19-22.58-64.39-45.14c-16.09-11.25-32.25-22.41-48.38-33.62l-.85-.91-.76-.2a1.45,1.45,0,0,0,.14.36,6.14,6.14,0,0,0,.73-.22c0,.52-.05,1-.07,1.56.86,1.43,1.69,2.9,2.59,4.31q35.9,56.14,71.78,112.3c.88,1.36,1.67,2.78,2.7,4.51L180.4,459l0,.64,190.14,39.6c-1.2,2-2,3.43-2.91,4.83q-30.39,48-60.78,96c-4.23,6.7-8.32,13.49-12.47,20.24-.35.3-.69.6-1,.91l0,.76.33-.2C293.55,621.48,293.42,621.27,293.28,621.06Z"/><path class="cls-3" d="M500.19,371.05q37.63-22.93,75.28-45.87c13.39-8.13,26.84-16.17,40.25-24.25a4.92,4.92,0,0,0,.64.57l-68,104.43-6.91,10.67L734.76,458v.72l-191,41.4c24.53,38.78,48.76,77.1,73,115.41l-.54.65c-1.49-.87-3-1.68-4.45-2.61L505.23,545.46c-1.28-.82-2.63-1.53-4-2.29,1.28-6.69,2.32-13.43,3.87-20.06,4.94-21.25,10.07-42.46,15.13-63.69a17.38,17.38,0,0,0-.21-2.71c-3.44-14.64-7-29.26-10.36-43.91C506.48,398.89,503.36,385,500.19,371.05Z"/><path class="cls-3" d="M408.33,544.18,301.17,617c-2,1.37-4.08,2.67-6.12,4l-.64-.82c4.15-6.75,8.24-13.54,12.47-20.24q30.36-48,60.78-96c.89-1.4,1.71-2.84,2.91-4.83l-190.14-39.6,0-.64,192.41-42.77c-1-1.73-1.82-3.15-2.7-4.51q-35.88-56.16-71.78-112.3c-.9-1.41-1.73-2.88-2.59-4.31l.81-.59c16.13,11.21,32.29,22.37,48.38,33.62q32.24,22.53,64.39,45.14c-.24,1.49-.37,3-.72,4.47q-9.66,40.59-19.36,81.16a18.26,18.26,0,0,0,.19,3.15c4,17.16,8.17,34.31,12.15,51.49C404,523.7,406.09,534,408.33,544.18Z"/><path class="cls-4" d="M408.33,544.18C406.09,534,404,523.7,401.58,513.5c-4-17.18-8.12-34.33-12.15-51.49a18.26,18.26,0,0,1-.19-3.15q62.56,0,125.14.07c2,0,3.93.32,5.9.49-5.06,21.23-10.19,42.44-15.13,63.69-1.55,6.63-2.59,13.37-3.87,20.06-1.85,6.21-4,12.35-5.52,18.64Q482,618.33,468.41,674.92c-4.45,18.48-8.8,37-13.21,55.48-.31,1.31-.74,2.59-1.4,4.87-5.14-21.81-10-42.62-15-63.43q-12.33-52.17-24.69-104.34C412.3,559.71,410.27,552,408.33,544.18Z"/><path class="cls-5" d="M520.28,459.42c-2-.17-3.93-.49-5.9-.49q-62.56-.07-125.14-.07,9.69-40.58,19.36-81.16c.35-1.46.48-3,.72-4.47,3.37-13.44,6.84-26.85,10.09-40.31Q437,260.21,454.47,187.5c.25-1,.63-2,1.24-4,4.25,18,8.3,35.13,12.32,52.24q15.68,66.59,31.33,133.15a15.26,15.26,0,0,0,.83,2.12c3.17,13.92,6.29,27.84,9.52,41.75,3.41,14.65,6.92,29.27,10.36,43.91A17.38,17.38,0,0,1,520.28,459.42Z"/><path class="cls-3" d="M295.82,293.49a5.25,5.25,0,0,1-.74.23,1.45,1.45,0,0,1-.14-.36l.76.2Z"/><path class="cls-3" d="M295.7,293.56l.85.91-.81.59c0-.52,0-1,.07-1.56Z"/><path class="cls-3" d="M615.72,300.93l.87-.48c-.08.35-.15.7-.23,1.05A4.92,4.92,0,0,1,615.72,300.93Z"/><path class="cls-3" d="M295.05,621l-1.77,0,.09.05,1-.9Z"/><path class="cls-3" d="M293.28,621.06l.41.62-.33.2c0-.25,0-.5,0-.77Z"/></g></g></svg>